 <svg version="1.0" xmlns="http://www.w3.org/2000/svg"  width="181.000000pt" height="57.000000pt" viewBox="0 0 181.000000 57.000000"  preserveAspectRatio="xMidYMid meet">  <g transform="translate(0.000000,57.000000) scale(0.100000,-0.100000)" fill="#000000" stroke="none"> <path d="M275 508 c-47 -17 -113 -75 -137 -121 -33 -65 -31 -158 5 -220 32 -55 92 -102 148 -117 25 -7 246 -10 626 -8 581 3 588 3 628 25 47 25 86 64 111 113 27 51 25 152 -4 206 -27 53 -90 107 -141 122 -51 16 -1192 15 -1236 0z m1243 -34 c171 -71 175 -307 7 -385 -37 -17 -77 -19 -628 -19 -509 0 -593 2 -625 16 -171 71 -175 307 -7 385 37 17 77 19 628 19 509 0 593 -2 625 -16z"/> <path d="M435 352 c-60 -3 -75 -19 -75 -79 0 -66 15 -71 198 -68 103 2 158 7 168 16 12 10 20 9 39 -1 36 -19 616 -20 639 -1 11 9 16 30 16 67 0 66 1 65 -167 63 -117 -1 -378 -1 -447 1 -15 0 -35 -5 -42 -11 -11 -9 -22 -8 -45 1 -29 12 -175 18 -284 12z m158 -55 l17 -32 -3 33 -4 32 54 0 c47 0 55 -3 65 -25 8 -19 8 -31 0 -50 -10 -22 -18 -25 -67 -25 -30 0 -55 4 -55 8 0 5 -7 17 -16 28 -15 18 -15 18 -11 -8 4 -28 4 -28 -52 -28 l-56 0 1 37 c2 35 0 38 -27 39 -35 1 -37 -8 -7 -21 30 -13 34 -41 8 -55 -17 -9 -26 -8 -46 5 -28 18 -23 41 6 25 23 -12 30 -13 30 -1 0 5 -11 12 -25 15 -23 6 -34 34 -19 49 3 3 47 6 98 6 l92 1 17 -33z m224 1 l11 -33 7 33 c5 22 13 32 26 32 16 0 19 -8 19 -50 0 -37 -4 -50 -15 -50 -11 0 -13 8 -10 33 l5 32 -12 -32 c-13 -40 -30 -42 -45 -5 l-12 27 6 -27 c4 -21 1 -28 -11 -28 -13 0 -16 11 -16 50 0 42 3 50 19 50 12 0 22 -11 28 -32z m231 13 c3 -10 -2 -12 -22 -7 -15 4 -26 2 -26 -4 0 -5 5 -10 12 -10 6 0 19 -6 27 -14 21 -19 71 -31 71 -18 0 5 -12 13 -26 16 -19 5 -25 12 -22 29 2 18 10 22 37 22 20 0 36 -6 39 -14 3 -10 -3 -11 -28 -6 -23 5 -30 4 -26 -4 4 -6 13 -11 20 -11 8 0 20 -7 27 -16 12 -14 14 -12 24 17 13 38 42 50 51 22 3 -10 12 -33 20 -50 13 -31 12 -33 -6 -33 -11 0 -20 5 -20 10 0 6 -7 10 -15 10 -8 0 -15 -4 -15 -9 0 -14 -80 -18 -98 -5 -13 9 -21 9 -39 -3 -12 -8 -28 -11 -34 -7 -7 4 -34 6 -61 5 l-48 -2 0 51 0 50 77 -2 c55 -2 78 -7 81 -17z m270 1 c3 -9 -5 -12 -24 -10 -21 2 -29 -2 -32 -16 -4 -20 14 -44 25 -32 4 4 1 11 -7 16 -11 7 -8 10 13 10 22 0 27 -4 27 -25 0 -14 -4 -25 -9 -25 -5 0 -16 -3 -24 -6 -37 -14 -74 65 -45 94 16 16 70 11 76 -6z m92 8 c0 -5 -11 -10 -25 -10 -14 0 -25 -4 -25 -10 0 -5 9 -10 20 -10 11 0 20 -4 20 -10 0 -5 -9 -10 -20 -10 -11 0 -20 -4 -20 -10 0 -5 11 -10 25 -10 14 0 25 -4 25 -10 0 -5 -18 -10 -40 -10 l-40 0 0 50 0 50 40 0 c22 0 40 -4 40 -10z"/> <path d="M490 300 c0 -5 9 -10 20 -10 11 0 20 -4 20 -10 0 -5 -9 -10 -20 -10 -11 0 -20 -4 -20 -10 0 -5 11 -10 25 -10 21 0 25 5 25 30 0 25 -4 30 -25 30 -14 0 -25 -4 -25 -10z"/> <path d="M670 280 c0 -21 4 -30 13 -27 6 2 12 14 12 27 0 13 -6 25 -12 28 -9 2 -13 -7 -13 -28z"/> <path d="M920 300 c0 -5 9 -10 20 -10 11 0 20 -4 20 -10 0 -5 -9 -10 -20 -10 -11 0 -20 -4 -20 -9 0 -5 22 -8 50 -8 27 1 50 5 50 10 0 4 -7 7 -15 7 -8 0 -20 9 -27 20 -13 20 -58 28 -58 10z"/> </g> </svg> 